# xmcd
#
# Track frame offsets:
#	150
#	2803
#	14929
#	16435
#	17596
#	18783
#	20813
#	22341
#	44251
#	45708
#	47064
#	48133
#	49341
#	50587
#	54239
#	73973
#	75464
#	76951
#	78133
#	79239
#	82803
#	85470
#	86255
#	87389
#	88236
#	89173
#	92314
#	95090
#	102186
#	103017
#	105117
#	105955
#	112408
#	123761
#	126085
#	126904
#	129426
#	131720
#	142024
#	142860
#	143712
#	144617
#	149072
#	152498
#	154913
#	168230
#	170842
#	171654
#	172520
#	185685
#	186451
#	188917
#	189679
#	210871
#	211677
#	212622
#	213684
#	214735
#	215720
#	219164
#	225966
#	238524
#
# Disc length: 3308 seconds
#
# Revision: 0
# Processed by: cddbd v1.5.2PL0 Copyright (c) Steve Scherf et al.
# Submitted via: dBpowerAMP V4.0
#
DISCID=6d0cea3e
DTITLE=sibal - shut the fuck 
DYEAR=2007
DGENRE=Other
TTITLE0=1
TTITLE1=2
TTITLE2=3
TTITLE3=4
TTITLE4=5
TTITLE5=6
TTITLE6=7
TTITLE7=8
TTITLE8=9
TTITLE9=0
TTITLE10=11
TTITLE11=22
TTITLE12=33
TTITLE13=44
TTITLE14=55
TTITLE15=66
TTITLE16=77
TTITLE17=88
TTITLE18=99
TTITLE19=00
TTITLE20=111
TTITLE21=222
TTITLE22=333
TTITLE23=444
TTITLE24=555
TTITLE25=666
TTITLE26=777
TTITLE27=888
TTITLE28=999
TTITLE29=000
TTITLE30=a
TTITLE31=b
TTITLE32=c
TTITLE33=d
TTITLE34=e
TTITLE35=f
TTITLE36=g
TTITLE37=h
TTITLE38=i
TTITLE39=j
TTITLE40=k
TTITLE41=l
TTITLE42=m
TTITLE43=n
TTITLE44=o
TTITLE45=p
TTITLE46=q
TTITLE47=r
TTITLE48=s
TTITLE49=t
TTITLE50=u
TTITLE51=v
TTITLE52=w
TTITLE53=x
TTITLE54=y
TTITLE55=z
TTITLE56=aa
TTITLE57=bb
TTITLE58=cc
TTITLE59=dd
TTITLE60=ee
TTITLE61=ff
EXTD=asdf
EXTT0=
EXTT1=
EXTT2=
EXTT3=
EXTT4=
EXTT5=
EXTT6=
EXTT7=
EXTT8=
EXTT9=
EXTT10=
EXTT11=
EXTT12=
EXTT13=
EXTT14=
EXTT15=
EXTT16=
EXTT17=
EXTT18=
EXTT19=
EXTT20=
EXTT21=
EXTT22=
EXTT23=
EXTT24=
EXTT25=
EXTT26=
EXTT27=
EXTT28=
EXTT29=
EXTT30=
EXTT31=
EXTT32=
EXTT33=
EXTT34=
EXTT35=
EXTT36=
EXTT37=
EXTT38=
EXTT39=
EXTT40=
EXTT41=
EXTT42=
EXTT43=
EXTT44=
EXTT45=
EXTT46=
EXTT47=
EXTT48=
EXTT49=
EXTT50=
EXTT51=
EXTT52=
EXTT53=
EXTT54=
EXTT55=
EXTT56=
EXTT57=
EXTT58=
EXTT59=
EXTT60=
EXTT61=
PLAYORDER=
